<svg id="visual" viewBox="0 0 960 540" width="960" height="540" xmlns="http://www.w3.org/2000/svg" xmlns:xlink="http://www.w3.org/1999/xlink" version="1.1"><rect x="0" y="0" width="960" height="540" fill="#202731"></rect><defs><linearGradient id="grad1_0" x1="43.8%" y1="0%" x2="100%" y2="100%"><stop offset="14.444444444444446%" stop-color="#6600ff" stop-opacity="1"></stop><stop offset="85.55555555555554%" stop-color="#6600ff" stop-opacity="1"></stop></linearGradient></defs><defs><linearGradient id="grad1_1" x1="43.8%" y1="0%" x2="100%" y2="100%"><stop offset="14.444444444444446%" stop-color="#6600ff" stop-opacity="1"></stop><stop offset="85.55555555555554%" stop-color="#003ba3" stop-opacity="1"></stop></linearGradient></defs><defs><linearGradient id="grad1_2" x1="43.8%" y1="0%" x2="100%" y2="100%"><stop offset="14.444444444444446%" stop-color="#202731" stop-opacity="1"></stop><stop offset="85.55555555555554%" stop-color="#003ba3" stop-opacity="1"></stop></linearGradient></defs><defs><linearGradient id="grad2_0" x1="0%" y1="0%" x2="56.3%" y2="100%"><stop offset="14.444444444444446%" stop-color="#6600ff" stop-opacity="1"></stop><stop offset="85.55555555555554%" stop-color="#6600ff" stop-opacity="1"></stop></linearGradient></defs><defs><linearGradient id="grad2_1" x1="0%" y1="0%" x2="56.3%" y2="100%"><stop offset="14.444444444444446%" stop-color="#003ba3" stop-opacity="1"></stop><stop offset="85.55555555555554%" stop-color="#6600ff" stop-opacity="1"></stop></linearGradient></defs><defs><linearGradient id="grad2_2" x1="0%" y1="0%" x2="56.3%" y2="100%"><stop offset="14.444444444444446%" stop-color="#003ba3" stop-opacity="1"></stop><stop offset="85.55555555555554%" stop-color="#202731" stop-opacity="1"></stop></linearGradient></defs><g transform="translate(960, 0)"><path d="M0 460C-42.3 416.1 -84.5 372.1 -150 362.2C-215.5 352.2 -304.3 376.3 -343.7 343.7C-383 311 -373 221.7 -374.2 155C-375.3 88.3 -387.7 44.1 -400 0L0 0Z" fill="#00336a"></path><path d="M0 306.7C-28.2 277.4 -56.3 248.1 -100 241.4C-143.7 234.8 -202.9 250.9 -229.1 229.1C-255.4 207.4 -248.7 147.8 -249.4 103.3C-250.2 58.8 -258.4 29.4 -266.7 0L0 0Z" fill="#0037d7"></path><path d="M0 153.3C-14.1 138.7 -28.2 124 -50 120.7C-71.8 117.4 -101.4 125.4 -114.6 114.6C-127.7 103.7 -124.3 73.9 -124.7 51.7C-125.1 29.4 -129.2 14.7 -133.3 0L0 0Z" fill="#6600ff"></path></g><g transform="translate(0, 540)"><path d="M0 -469C50.2 -430.4 100.4 -391.7 153.1 -369.6C205.7 -347.4 260.8 -341.7 315.4 -315.4C369.9 -289 424 -242 449 -186C474 -130 470 -65 466 0L0 0Z" fill="#00336a"></path><path d="M0 -312.7C33.5 -286.9 67 -261.1 102 -246.4C137.1 -231.6 173.9 -227.8 210.2 -210.2C246.6 -192.7 282.7 -161.3 299.3 -124C316 -86.7 313.3 -43.3 310.7 0L0 0Z" fill="#0037d7"></path><path d="M0 -156.3C16.7 -143.5 33.5 -130.6 51 -123.2C68.6 -115.8 86.9 -113.9 105.1 -105.1C123.3 -96.3 141.3 -80.7 149.7 -62C158 -43.3 156.7 -21.7 155.3 0L0 0Z" fill="#6600ff"></path></g></svg>