<svg id="visual" viewBox="0 0 960 300" width="960" height="300" xmlns="http://www.w3.org/2000/svg" xmlns:xlink="http://www.w3.org/1999/xlink" version="1.1"><rect x="0" y="0" width="960" height="300" fill="#202731"></rect><path d="M0 104L22.8 100.7C45.7 97.3 91.3 90.7 137 86.3C182.7 82 228.3 80 274 81.7C319.7 83.3 365.3 88.7 411.2 90C457 91.3 503 88.7 548.8 85.5C594.7 82.3 640.3 78.7 686 79.3C731.7 80 777.3 85 823 86.7C868.7 88.3 914.3 86.7 937.2 85.8L960 85L960 0L937.2 0C914.3 0 868.7 0 823 0C777.3 0 731.7 0 686 0C640.3 0 594.7 0 548.8 0C503 0 457 0 411.2 0C365.3 0 319.7 0 274 0C228.3 0 182.7 0 137 0C91.3 0 45.7 0 22.8 0L0 0Z" fill="#ff0066"></path><path d="M0 98L22.8 93.8C45.7 89.7 91.3 81.3 137 79.3C182.7 77.3 228.3 81.7 274 82.8C319.7 84 365.3 82 411.2 81.8C457 81.7 503 83.3 548.8 83.8C594.7 84.3 640.3 83.7 686 81.8C731.7 80 777.3 77 823 76.5C868.7 76 914.3 78 937.2 79L960 80L960 0L937.2 0C914.3 0 868.7 0 823 0C777.3 0 731.7 0 686 0C640.3 0 594.7 0 548.8 0C503 0 457 0 411.2 0C365.3 0 319.7 0 274 0C228.3 0 182.7 0 137 0C91.3 0 45.7 0 22.8 0L0 0Z" fill="#b71b7d"></path><path d="M0 65L22.8 66.7C45.7 68.3 91.3 71.7 137 68.8C182.7 66 228.3 57 274 51.7C319.7 46.3 365.3 44.7 411.2 48C457 51.3 503 59.7 548.8 61.8C594.7 64 640.3 60 686 58.3C731.7 56.7 777.3 57.3 823 57.2C868.7 57 914.3 56 937.2 55.5L960 55L960 0L937.2 0C914.3 0 868.7 0 823 0C777.3 0 731.7 0 686 0C640.3 0 594.7 0 548.8 0C503 0 457 0 411.2 0C365.3 0 319.7 0 274 0C228.3 0 182.7 0 137 0C91.3 0 45.7 0 22.8 0L0 0Z" fill="#672c76"></path><path d="M0 52L22.8 52.3C45.7 52.7 91.3 53.3 137 51.7C182.7 50 228.3 46 274 45.3C319.7 44.7 365.3 47.3 411.2 48.2C457 49 503 48 548.8 47.5C594.7 47 640.3 47 686 44.7C731.7 42.3 777.3 37.7 823 37.3C868.7 37 914.3 41 937.2 43L960 45L960 0L937.2 0C914.3 0 868.7 0 823 0C777.3 0 731.7 0 686 0C640.3 0 594.7 0 548.8 0C503 0 457 0 411.2 0C365.3 0 319.7 0 274 0C228.3 0 182.7 0 137 0C91.3 0 45.7 0 22.8 0L0 0Z" fill="#222553"></path><path d="M0 30L22.8 28.8C45.7 27.7 91.3 25.3 137 24.7C182.7 24 228.3 25 274 23.7C319.7 22.3 365.3 18.7 411.2 16.7C457 14.7 503 14.3 548.8 14.7C594.7 15 640.3 16 686 17.2C731.7 18.3 777.3 19.7 823 21.3C868.7 23 914.3 25 937.2 26L960 27L960 0L937.2 0C914.3 0 868.7 0 823 0C777.3 0 731.7 0 686 0C640.3 0 594.7 0 548.8 0C503 0 457 0 411.2 0C365.3 0 319.7 0 274 0C228.3 0 182.7 0 137 0C91.3 0 45.7 0 22.8 0L0 0Z" fill="#001122"></path></svg>