<svg id="visual" viewBox="0 0 900 300" width="900" height="300" xmlns="http://www.w3.org/2000/svg" xmlns:xlink="http://www.w3.org/1999/xlink" version="1.1"><rect x="0" y="0" width="900" height="300" fill="#202731"></rect><path d="M0 228L10.7 229.8C21.3 231.7 42.7 235.3 64.2 236.7C85.7 238 107.3 237 128.8 234.7C150.3 232.3 171.7 228.7 193 225.7C214.3 222.7 235.7 220.3 257 221.7C278.3 223 299.7 228 321.2 230.7C342.7 233.3 364.3 233.7 385.8 234.2C407.3 234.7 428.7 235.3 450 235.3C471.3 235.3 492.7 234.7 514.2 233.3C535.7 232 557.3 230 578.8 225.8C600.3 221.7 621.7 215.3 643 217C664.3 218.7 685.7 228.3 707 227.8C728.3 227.3 749.7 216.7 771.2 216.2C792.7 215.7 814.3 225.3 835.8 228.3C857.3 231.3 878.7 227.7 889.3 225.8L900 224L900 301L889.3 301C878.7 301 857.3 301 835.8 301C814.3 301 792.7 301 771.2 301C749.7 301 728.3 301 707 301C685.7 301 664.3 301 643 301C621.7 301 600.3 301 578.8 301C557.3 301 535.7 301 514.2 301C492.7 301 471.3 301 450 301C428.7 301 407.3 301 385.8 301C364.3 301 342.7 301 321.2 301C299.7 301 278.3 301 257 301C235.7 301 214.3 301 193 301C171.7 301 150.3 301 128.8 301C107.3 301 85.7 301 64.2 301C42.7 301 21.3 301 10.7 301L0 301Z" fill="#4facf7"></path><path d="M0 247L10.7 243.7C21.3 240.3 42.7 233.7 64.2 233.2C85.7 232.7 107.3 238.3 128.8 241.8C150.3 245.3 171.7 246.7 193 244.7C214.3 242.7 235.7 237.3 257 234.7C278.3 232 299.7 232 321.2 231.8C342.7 231.7 364.3 231.3 385.8 231.8C407.3 232.3 428.7 233.7 450 236.5C471.3 239.3 492.7 243.7 514.2 243.5C535.7 243.3 557.3 238.7 578.8 233.8C600.3 229 621.7 224 643 222.3C664.3 220.7 685.7 222.3 707 222.8C728.3 223.3 749.7 222.7 771.2 223.2C792.7 223.7 814.3 225.3 835.8 229.3C857.3 233.3 878.7 239.7 889.3 242.8L900 246L900 301L889.3 301C878.7 301 857.3 301 835.8 301C814.3 301 792.7 301 771.2 301C749.7 301 728.3 301 707 301C685.7 301 664.3 301 643 301C621.7 301 600.3 301 578.8 301C557.3 301 535.7 301 514.2 301C492.7 301 471.3 301 450 301C428.7 301 407.3 301 385.8 301C364.3 301 342.7 301 321.2 301C299.7 301 278.3 301 257 301C235.7 301 214.3 301 193 301C171.7 301 150.3 301 128.8 301C107.3 301 85.7 301 64.2 301C42.7 301 21.3 301 10.7 301L0 301Z" fill="#2798f9"></path><path d="M0 238L10.7 237.7C21.3 237.3 42.7 236.7 64.2 237.3C85.7 238 107.3 240 128.8 242.7C150.3 245.3 171.7 248.7 193 247.7C214.3 246.7 235.7 241.3 257 240.3C278.3 239.3 299.7 242.7 321.2 246C342.7 249.3 364.3 252.7 385.8 253.5C407.3 254.3 428.7 252.7 450 250.3C471.3 248 492.7 245 514.2 246C535.7 247 557.3 252 578.8 251.3C600.3 250.7 621.7 244.3 643 241.3C664.3 238.3 685.7 238.7 707 241.8C728.3 245 749.7 251 771.2 250.7C792.7 250.3 814.3 243.7 835.8 243.7C857.3 243.7 878.7 250.3 889.3 253.7L900 257L900 301L889.3 301C878.7 301 857.3 301 835.8 301C814.3 301 792.7 301 771.2 301C749.7 301 728.3 301 707 301C685.7 301 664.3 301 643 301C621.7 301 600.3 301 578.8 301C557.3 301 535.7 301 514.2 301C492.7 301 471.3 301 450 301C428.7 301 407.3 301 385.8 301C364.3 301 342.7 301 321.2 301C299.7 301 278.3 301 257 301C235.7 301 214.3 301 193 301C171.7 301 150.3 301 128.8 301C107.3 301 85.7 301 64.2 301C42.7 301 21.3 301 10.7 301L0 301Z" fill="#0083f8"></path><path d="M0 260L10.7 261.3C21.3 262.7 42.7 265.3 64.2 266.2C85.7 267 107.3 266 128.8 263.8C150.3 261.7 171.7 258.3 193 258.8C214.3 259.3 235.7 263.7 257 263.8C278.3 264 299.7 260 321.2 258C342.7 256 364.3 256 385.8 258C407.3 260 428.7 264 450 263.3C471.3 262.7 492.7 257.3 514.2 256.3C535.7 255.3 557.3 258.7 578.8 261C600.3 263.3 621.7 264.7 643 264C664.3 263.3 685.7 260.7 707 257.5C728.3 254.3 749.7 250.7 771.2 250.3C792.7 250 814.3 253 835.8 253.2C857.3 253.3 878.7 250.7 889.3 249.3L900 248L900 301L889.3 301C878.7 301 857.3 301 835.8 301C814.3 301 792.7 301 771.2 301C749.7 301 728.3 301 707 301C685.7 301 664.3 301 643 301C621.7 301 600.3 301 578.8 301C557.3 301 535.7 301 514.2 301C492.7 301 471.3 301 450 301C428.7 301 407.3 301 385.8 301C364.3 301 342.7 301 321.2 301C299.7 301 278.3 301 257 301C235.7 301 214.3 301 193 301C171.7 301 150.3 301 128.8 301C107.3 301 85.7 301 64.2 301C42.7 301 21.3 301 10.7 301L0 301Z" fill="#006cf3"></path><path d="M0 278L10.7 277C21.3 276 42.7 274 64.2 271.8C85.7 269.7 107.3 267.3 128.8 266.3C150.3 265.3 171.7 265.7 193 265.5C214.3 265.3 235.7 264.7 257 266.5C278.3 268.3 299.7 272.7 321.2 273.5C342.7 274.3 364.3 271.7 385.8 269.3C407.3 267 428.7 265 450 266.2C471.3 267.3 492.7 271.7 514.2 274C535.7 276.3 557.3 276.7 578.8 274.8C600.3 273 621.7 269 643 266.7C664.3 264.3 685.7 263.7 707 263.5C728.3 263.3 749.7 263.7 771.2 264.5C792.7 265.3 814.3 266.7 835.8 267.2C857.3 267.7 878.7 267.3 889.3 267.2L900 267L900 301L889.3 301C878.7 301 857.3 301 835.8 301C814.3 301 792.7 301 771.2 301C749.7 301 728.3 301 707 301C685.7 301 664.3 301 643 301C621.7 301 600.3 301 578.8 301C557.3 301 535.7 301 514.2 301C492.7 301 471.3 301 450 301C428.7 301 407.3 301 385.8 301C364.3 301 342.7 301 321.2 301C299.7 301 278.3 301 257 301C235.7 301 214.3 301 193 301C171.7 301 150.3 301 128.8 301C107.3 301 85.7 301 64.2 301C42.7 301 21.3 301 10.7 301L0 301Z" fill="#1e52ea"></path><path d="M0 278L10.7 278.2C21.3 278.3 42.7 278.7 64.2 279.5C85.7 280.3 107.3 281.7 128.8 281.5C150.3 281.3 171.7 279.7 193 279C214.3 278.3 235.7 278.7 257 280.3C278.3 282 299.7 285 321.2 284.8C342.7 284.7 364.3 281.3 385.8 279.7C407.3 278 428.7 278 450 278.5C471.3 279 492.7 280 514.2 279.5C535.7 279 557.3 277 578.8 276.2C600.3 275.3 621.7 275.7 643 276.3C664.3 277 685.7 278 707 278.8C728.3 279.7 749.7 280.3 771.2 280.3C792.7 280.3 814.3 279.7 835.8 280.5C857.3 281.3 878.7 283.7 889.3 284.8L900 286L900 301L889.3 301C878.7 301 857.3 301 835.8 301C814.3 301 792.7 301 771.2 301C749.7 301 728.3 301 707 301C685.7 301 664.3 301 643 301C621.7 301 600.3 301 578.8 301C557.3 301 535.7 301 514.2 301C492.7 301 471.3 301 450 301C428.7 301 407.3 301 385.8 301C364.3 301 342.7 301 321.2 301C299.7 301 278.3 301 257 301C235.7 301 214.3 301 193 301C171.7 301 150.3 301 128.8 301C107.3 301 85.7 301 64.2 301C42.7 301 21.3 301 10.7 301L0 301Z" fill="#3c31dd"></path></svg>