<svg id="visual" viewBox="0 0 900 300" width="900" height="300" xmlns="http://www.w3.org/2000/svg" xmlns:xlink="http://www.w3.org/1999/xlink" version="1.1"><rect x="0" y="0" width="900" height="300" fill="#202731"></rect><path d="M0 186L16.7 189.8C33.3 193.7 66.7 201.3 100 201.2C133.3 201 166.7 193 200 191.8C233.3 190.7 266.7 196.3 300 202C333.3 207.7 366.7 213.3 400 216C433.3 218.7 466.7 218.3 500 218.3C533.3 218.3 566.7 218.7 600 215.5C633.3 212.3 666.7 205.7 700 203.3C733.3 201 766.7 203 800 201.7C833.3 200.3 866.7 195.7 883.3 193.3L900 191L900 301L883.3 301C866.7 301 833.3 301 800 301C766.7 301 733.3 301 700 301C666.7 301 633.3 301 600 301C566.7 301 533.3 301 500 301C466.7 301 433.3 301 400 301C366.7 301 333.3 301 300 301C266.7 301 233.3 301 200 301C166.7 301 133.3 301 100 301C66.7 301 33.3 301 16.7 301L0 301Z" fill="#f7770f"></path><path d="M0 238L16.7 233.8C33.3 229.7 66.7 221.3 100 220.2C133.3 219 166.7 225 200 227.5C233.3 230 266.7 229 300 224C333.3 219 366.7 210 400 211.2C433.3 212.3 466.7 223.7 500 228.3C533.3 233 566.7 231 600 230.7C633.3 230.3 666.7 231.7 700 229.5C733.3 227.3 766.7 221.7 800 220.2C833.3 218.7 866.7 221.3 883.3 222.7L900 224L900 301L883.3 301C866.7 301 833.3 301 800 301C766.7 301 733.3 301 700 301C666.7 301 633.3 301 600 301C566.7 301 533.3 301 500 301C466.7 301 433.3 301 400 301C366.7 301 333.3 301 300 301C266.7 301 233.3 301 200 301C166.7 301 133.3 301 100 301C66.7 301 33.3 301 16.7 301L0 301Z" fill="#d53a52"></path><path d="M0 248L16.7 243.5C33.3 239 66.7 230 100 229C133.3 228 166.7 235 200 239.3C233.3 243.7 266.7 245.3 300 247C333.3 248.7 366.7 250.3 400 247.5C433.3 244.7 466.7 237.3 500 235.8C533.3 234.3 566.7 238.7 600 236.8C633.3 235 666.7 227 700 229C733.3 231 766.7 243 800 245.5C833.3 248 866.7 241 883.3 237.5L900 234L900 301L883.3 301C866.7 301 833.3 301 800 301C766.7 301 733.3 301 700 301C666.7 301 633.3 301 600 301C566.7 301 533.3 301 500 301C466.7 301 433.3 301 400 301C366.7 301 333.3 301 300 301C266.7 301 233.3 301 200 301C166.7 301 133.3 301 100 301C66.7 301 33.3 301 16.7 301L0 301Z" fill="#8a2c67"></path><path d="M0 264L16.7 260.5C33.3 257 66.7 250 100 247.3C133.3 244.7 166.7 246.3 200 250C233.3 253.7 266.7 259.3 300 259.5C333.3 259.7 366.7 254.3 400 253.8C433.3 253.3 466.7 257.7 500 256.5C533.3 255.3 566.7 248.7 600 247.2C633.3 245.7 666.7 249.3 700 253.5C733.3 257.7 766.7 262.3 800 263.5C833.3 264.7 866.7 262.3 883.3 261.2L900 260L900 301L883.3 301C866.7 301 833.3 301 800 301C766.7 301 733.3 301 700 301C666.7 301 633.3 301 600 301C566.7 301 533.3 301 500 301C466.7 301 433.3 301 400 301C366.7 301 333.3 301 300 301C266.7 301 233.3 301 200 301C166.7 301 133.3 301 100 301C66.7 301 33.3 301 16.7 301L0 301Z" fill="#362753"></path><path d="M0 271L16.7 273.3C33.3 275.7 66.7 280.3 100 281C133.3 281.7 166.7 278.3 200 275.7C233.3 273 266.7 271 300 271.2C333.3 271.3 366.7 273.7 400 275.2C433.3 276.7 466.7 277.3 500 277.3C533.3 277.3 566.7 276.7 600 276.3C633.3 276 666.7 276 700 275.5C733.3 275 766.7 274 800 274.3C833.3 274.7 866.7 276.3 883.3 277.2L900 278L900 301L883.3 301C866.7 301 833.3 301 800 301C766.7 301 733.3 301 700 301C666.7 301 633.3 301 600 301C566.7 301 533.3 301 500 301C466.7 301 433.3 301 400 301C366.7 301 333.3 301 300 301C266.7 301 233.3 301 200 301C166.7 301 133.3 301 100 301C66.7 301 33.3 301 16.7 301L0 301Z" fill="#001122"></path></svg>